<?xml version="1.0" encoding="iso-8859-1"?>
<!-- Uploaded to: SVG Repo, www.svgrepo.com, Generator: SVG Repo Mixer Tools -->
<svg height="800px" width="800px" version="1.1" id="Capa_1" xmlns="http://www.w3.org/2000/svg" xmlns:xlink="http://www.w3.org/1999/xlink" 
	 viewBox="0 0 465 465" xml:space="preserve">
<g>
	<path style="fill:#FF9926;" d="M195,401.385v-15.331c-38.698-8.249-73.938-29.298-99.778-59.75
		C67.672,293.836,52.5,252.532,52.5,210c0-99.252,80.748-180,180-180s180,80.748,180,180c0,42.532-15.172,83.836-42.722,116.304
		c-25.842,30.454-61.077,51.503-99.778,59.751v15.33C360.383,383.727,427.5,302.962,427.5,210c0-107.523-87.477-195-195-195
		s-195,87.477-195,195C37.5,302.962,104.617,383.727,195,401.385z"/>
	<path style="fill:#FF9926;" d="M37.5,427.5c0,4.136,3.364,7.5,7.5,7.5h150v-15H45C40.864,420,37.5,423.364,37.5,427.5z"/>
	<path style="fill:#FF9926;" d="M420,420H270v15h150c4.136,0,7.5-3.364,7.5-7.5S424.136,420,420,420z"/>
	<path style="fill:#FECC33;" d="M254.964,380.102c-0.363-3.8-3.571-6.781-7.464-6.781c-4.136,0-7.5,3.364-7.5,7.5
		c0,4.143-3.357,7.5-7.5,7.5s-7.5-3.357-7.5-7.5c0-4.136-3.364-7.5-7.5-7.5c-3.894,0-7.102,2.983-7.464,6.784
		c-0.002,0.078,0.001,0.155-0.003,0.234L210,380.855V442.5c0,4.136,3.364,7.5,7.5,7.5s7.5-3.364,7.5-7.5v-31.679
		c0-4.143,3.357-7.5,7.5-7.5s7.5,3.357,7.5,7.5V442.5c0,4.136,3.364,7.5,7.5,7.5s7.5-3.364,7.5-7.5v-61.679l-0.032-0.458
		C254.962,380.276,254.966,380.189,254.964,380.102z"/>
	<path d="M420,405H310.482c30.746-12.314,58.436-31.854,80.53-57.256C424.215,309.571,442.5,260.652,442.5,210
		c0-115.794-94.206-210-210-210s-210,94.206-210,210c0,50.652,18.285,99.571,51.487,137.744
		c22.094,25.402,49.784,44.942,80.53,57.256H45c-12.406,0-22.5,10.094-22.5,22.5S32.594,450,45,450h151.29
		c3.096,8.729,11.433,15,21.21,15c5.757,0,11.017-2.174,15-5.743c3.983,3.569,9.243,5.743,15,5.743c9.777,0,18.114-6.271,21.21-15
		H420c12.406,0,22.5-10.094,22.5-22.5S432.406,405,420,405z M420,435H270v-15h150c4.136,0,7.5,3.364,7.5,7.5S424.136,435,420,435z
		 M255,442.5c0,4.136-3.364,7.5-7.5,7.5s-7.5-3.364-7.5-7.5v-31.679c0-4.143-3.357-7.5-7.5-7.5s-7.5,3.357-7.5,7.5V442.5
		c0,4.136-3.364,7.5-7.5,7.5s-7.5-3.364-7.5-7.5v-61.645l0.033-0.516c0.005-0.079,0.001-0.156,0.003-0.234
		c0.362-3.801,3.57-6.784,7.464-6.784c4.136,0,7.5,3.364,7.5,7.5c0,4.143,3.357,7.5,7.5,7.5s7.5-3.357,7.5-7.5
		c0-4.136,3.364-7.5,7.5-7.5c3.893,0,7.1,2.981,7.464,6.781c0.002,0.087-0.001,0.173,0.004,0.261l0.032,0.458V442.5z M195,435H45
		c-4.136,0-7.5-3.364-7.5-7.5s3.364-7.5,7.5-7.5h150V435z M232.5,15c107.523,0,195,87.477,195,195
		c0,92.962-67.117,173.727-157.5,191.385v-15.33c38.701-8.248,73.937-29.297,99.778-59.751C397.328,293.836,412.5,252.532,412.5,210
		c0-99.252-80.748-180-180-180s-180,80.748-180,180c0,42.532,15.172,83.836,42.722,116.304c25.84,30.453,61.08,51.502,99.778,59.75
		v15.331C104.617,383.727,37.5,302.962,37.5,210C37.5,102.477,124.977,15,232.5,15z M232.5,364.064
		c-3.983-3.569-9.243-5.743-15-5.743c-8.959,0-16.711,5.266-20.327,12.863C121.635,354.719,67.5,287.993,67.5,210
		c0-90.981,74.019-165,165-165s165,74.019,165,165c0,77.993-54.135,144.719-129.673,161.185
		c-3.617-7.598-11.368-12.863-20.327-12.863C241.743,358.321,236.483,360.495,232.5,364.064z"/>
</g>
</svg>