<?xml version="1.0" encoding="iso-8859-1"?>
<!-- Uploaded to: SVG Repo, www.svgrepo.com, Generator: SVG Repo Mixer Tools -->
<svg height="800px" width="800px" version="1.1" id="Capa_1" xmlns="http://www.w3.org/2000/svg" xmlns:xlink="http://www.w3.org/1999/xlink" 
	 viewBox="0 0 465 465" xml:space="preserve">
<g>
	<path style="fill:#FECC33;" d="M293.669,362.448V450H450v-80.071H316.17c-4.142,0-7.499-3.357-7.5-7.499h-15
		C293.67,362.436,293.669,362.442,293.669,362.448z"/>
	<path style="fill:#E43017;" d="M232.5,316.259c-22.904,0-41.956,16.767-45.55,38.669h91.101
		C274.456,333.026,255.404,316.259,232.5,316.259z"/>
	<path style="fill:#FECC33;" d="M148.83,369.929H15V450h156.331v-87.552c0-0.006-0.001-0.012-0.001-0.018h-15
		C156.329,366.572,152.972,369.929,148.83,369.929z"/>
	<path style="fill:#FFFFFF;" d="M139.395,223.908C143.227,175.896,183.52,138,232.5,138s89.273,37.896,93.105,85.908h17.533
		c0.959-7.805,3.403-15.153,7.023-21.769v-31.181c-4.142,0-7.5-3.358-7.5-7.5v-62.55H122.338v62.55c0,4.142-3.357,7.5-7.5,7.5
		v31.181c3.62,6.616,6.064,13.965,7.023,21.769H139.395z"/>
	<path style="fill:#FECC33;" d="M310.54,85.908C306.751,46.18,273.203,15,232.5,15c-40.703,0-74.251,31.18-78.04,70.908H310.54z"/>
	<path style="fill:#FECC33;" d="M310.54,223.908C306.751,184.18,273.203,153,232.5,153c-40.703,0-74.251,31.18-78.04,70.908H310.54z
		"/>
	<path style="fill:#FECC33;" d="M106.719,223.908c-3.594-21.902-22.646-38.669-45.55-38.669s-41.956,16.767-45.55,38.669H106.719z"
		/>
	<path style="fill:#FECC33;" d="M403.831,185.238c-22.904,0-41.956,16.767-45.55,38.669h91.101
		C445.787,202.005,426.735,185.238,403.831,185.238z"/>
	<path style="fill:#FF9926;" d="M15,354.929h133.83c4.143,0,7.5,3.358,7.5,7.5h15c0-0.013,0.002-0.026,0.002-0.039
		c0.021-33.711,27.453-61.13,61.168-61.13c33.715,0,61.147,27.419,61.168,61.13c0,0.013,0.002,0.026,0.002,0.039h15
		c0-4.142,3.357-7.5,7.5-7.5H450V238.908H15V354.929z"/>
	<path d="M122.338,163.458v-62.55h220.324v62.55c0,4.142,3.357,7.5,7.5,7.5h0c4.143,0,7.5-3.358,7.5-7.5v-70.05
		c0-4.142-3.357-7.5-7.5-7.5h-24.557C321.773,37.896,281.48,0,232.5,0s-89.273,37.896-93.105,85.908h-24.557
		c-4.143,0-7.5,3.358-7.5,7.5v70.05c0,4.142,3.357,7.5,7.5,7.5h0C118.981,170.957,122.338,167.599,122.338,163.458z M232.5,15
		c40.703,0,74.251,31.18,78.04,70.908H154.46C158.249,46.18,191.797,15,232.5,15z"/>
	<path d="M457.5,94.68c-4.143,0-7.5,3.358-7.5,7.5v89.17c-11.224-12.919-27.752-21.112-46.169-21.112
		c-23.129,0-43.28,12.913-53.669,31.9c-3.62,6.616-6.064,13.965-7.023,21.769h-17.533C321.773,175.896,281.48,138,232.5,138
		s-89.273,37.896-93.105,85.908h-17.533c-0.959-7.805-3.403-15.153-7.023-21.769c-10.389-18.987-30.541-31.9-53.669-31.9
		c-18.417,0-34.945,8.193-46.169,21.112v-89.17c0-4.142-3.357-7.5-7.5-7.5S0,98.038,0,102.18v129.228V457.5
		c0,4.142,3.357,7.5,7.5,7.5h171.331c4.143,0,7.5-3.358,7.5-7.5v-87.571h92.338V457.5c0,4.142,3.357,7.5,7.5,7.5H457.5
		c4.143,0,7.5-3.358,7.5-7.5V231.408V102.18C465,98.038,461.643,94.68,457.5,94.68z M450,354.929H316.17c-4.143,0-7.5,3.358-7.5,7.5
		v0v0.001c0.001,4.142,3.358,7.499,7.5,7.499H450V450H293.669v-87.552c0-0.006,0.001-0.012,0.001-0.018v-0.001v0
		c0-0.013-0.002-0.026-0.002-0.039c-0.021-33.711-27.453-61.13-61.168-61.13c-33.715,0-61.147,27.419-61.168,61.13
		c0,0.013-0.002,0.026-0.002,0.039v0v0.001c0,0.006,0.001,0.012,0.001,0.018V450H15v-80.071h133.83c4.142,0,7.499-3.357,7.5-7.499
		v-0.001v0c0-4.142-3.357-7.5-7.5-7.5H15V238.908h435V354.929z M232.5,316.259c22.904,0,41.956,16.767,45.55,38.669H186.95
		C190.544,333.026,209.596,316.259,232.5,316.259z M61.169,185.238c22.904,0,41.956,16.767,45.55,38.669H15.619
		C19.213,202.005,38.265,185.238,61.169,185.238z M358.281,223.908c3.594-21.902,22.646-38.669,45.55-38.669
		s41.956,16.767,45.55,38.669H358.281z M232.5,153c40.703,0,74.251,31.18,78.04,70.908H154.46C158.249,184.18,191.797,153,232.5,153
		z"/>
</g>
</svg>