<?xml version="1.0" encoding="iso-8859-1"?>
<!-- Uploaded to: SVG Repo, www.svgrepo.com, Generator: SVG Repo Mixer Tools -->
<svg height="800px" width="800px" version="1.1" id="Capa_1" xmlns="http://www.w3.org/2000/svg" xmlns:xlink="http://www.w3.org/1999/xlink" 
	 viewBox="0 0 465.004 465.004" xml:space="preserve">
<g>
	<path style="fill:#0C80E4;" d="M278.578,226.336c4.654-6.502,11.561-10.803,19.45-12.11c0.268-0.045,0.536-0.073,0.801-0.088
		c0.061-0.004,0.122,0,0.183-0.002c0.207-0.007,0.412-0.01,0.616,0c0.072,0.004,0.143,0.013,0.215,0.019
		c0.192,0.015,0.382,0.034,0.571,0.063c0.08,0.013,0.158,0.03,0.238,0.045c0.176,0.034,0.351,0.071,0.523,0.117
		c0.088,0.023,0.175,0.05,0.263,0.077c0.159,0.049,0.315,0.101,0.47,0.16c0.095,0.036,0.188,0.073,0.282,0.113
		c0.142,0.061,0.282,0.127,0.42,0.196c0.097,0.049,0.194,0.097,0.289,0.15c0.133,0.074,0.261,0.155,0.39,0.237
		c0.091,0.058,0.183,0.113,0.272,0.175c0.146,0.103,0.286,0.215,0.425,0.328c0.056,0.045,0.116,0.084,0.17,0.131
		c0.007,0.006,0.012,0.012,0.019,0.018c0.192,0.167,0.376,0.345,0.551,0.531c0.016,0.017,0.03,0.035,0.045,0.053l14.6-9.232
		c-0.001-0.001-0.002-0.002-0.002-0.003c-2.214-3.501-1.17-8.133,2.331-10.347l32.543-20.578l-22.571-49.977l-148.242,91.445
		l40.88,40.693l21.94-13.874c3.501-2.214,8.134-1.17,10.347,2.331c0,0.001,0.001,0.001,0.001,0.002l17.404-11.005
		C274.919,232.578,276.452,229.307,278.578,226.336z"/>
	<polygon style="fill:#E43017;" points="284.442,108.546 296.781,130.308 325.443,112.627 315.068,89.654 	"/>
	<path style="fill:#0C80E4;" d="M77.076,111.993l66.27,65.967l49.264-30.389c3.526-2.174,8.146-1.079,10.321,2.446c0,0,0,0,0,0.001
		l12.767-7.875c0,0-0.001-0.001-0.001-0.001c-2.175-3.525-1.08-8.146,2.446-10.321l90.7-55.95l-27.428-60.732
		c-37.919-1.349-77.343,7.235-114.319,24.931C130.715,57.48,99.719,82.267,77.076,111.993z"/>
	<path style="fill:#FF9926;" d="M365.794,243.014c-1.462,2.06-3.774,3.158-6.122,3.158c-1.502,0-3.018-0.45-4.336-1.385
		l-9.195-6.529c-2.662-1.89-3.795-5.284-2.803-8.394c0.992-3.11,3.881-5.221,7.146-5.221h25.548l-15.558-34.45l-30.76,19.451
		c-1.244,0.787-2.631,1.162-4.001,1.162c-2.486,0-4.916-1.234-6.344-3.49l-14.6,9.232c0.038,0.044,0.076,0.089,0.115,0.134
		c0.119,0.135,0.235,0.271,0.345,0.415c0.056,0.074,0.106,0.15,0.159,0.226c0.098,0.139,0.193,0.28,0.282,0.426
		c0.049,0.081,0.094,0.164,0.14,0.247c0.08,0.145,0.157,0.292,0.228,0.443c0.043,0.091,0.083,0.182,0.122,0.275
		c0.061,0.145,0.118,0.293,0.17,0.444c0.036,0.104,0.071,0.208,0.102,0.313c0.042,0.141,0.079,0.285,0.113,0.43
		c0.028,0.117,0.055,0.234,0.077,0.353c0.009,0.049,0.024,0.096,0.032,0.146c0.016,0.097,0.021,0.192,0.033,0.289
		c0.015,0.116,0.031,0.231,0.04,0.348c0.014,0.17,0.017,0.339,0.019,0.508c0.001,0.071,0.009,0.141,0.008,0.212l-0.183,10.518
		c-0.062,3.539-2.551,6.424-5.872,7.172l4.254,19.096c0.137-0.019,0.275-0.025,0.412-0.048c4.081-0.678,7.948,2.086,8.625,6.173
		c0.677,4.086-2.086,7.948-6.173,8.625c-1.655,0.274-3.313,0.41-4.958,0.41c-6.195,0-12.22-1.922-17.358-5.6
		c-6.502-4.653-10.803-11.561-12.11-19.45c-0.71-4.284-0.484-8.576,0.61-12.648l-17.404,11.005
		c2.212,3.501,1.169,8.132-2.332,10.345l-19.054,12.049l16.648,16.572c2.115,2.105,2.78,5.263,1.696,8.042l-32.452,83.153
		c0.315-0.004,0.626-0.024,0.942-0.024c41.781,0,76.217,32.052,80.011,72.858h45.113c-2.824-24.811-19.514-45.808-43.087-54.115
		l-0.28,0.717c-1.156,2.963-3.989,4.775-6.989,4.775c-0.907,0-1.829-0.166-2.725-0.515c-3.859-1.506-5.766-5.855-4.26-9.713
		l27.292-69.931c1.124-2.879,3.898-4.773,6.987-4.773c0.009,0,0.018,0,0.026,0l38.097,0.135c9.27,0,16.832-7.563,16.832-16.858
		v-5.951h-5.541c-4.142,0-7.5-3.358-7.5-7.5s3.358-7.5,7.5-7.5h5.541v-39.132h-11.944
		C366.965,240.82,366.53,241.978,365.794,243.014z"/>
	<polygon style="fill:#FECC33;" points="284.006,138.189 271.667,116.427 240.999,135.345 255.3,155.897 	"/>
	<path style="fill:#E43017;" d="M200.485,160.337l-2.876,1.774l16.263,19.341l28.642-17.668l-14.301-20.552l-2.195,1.354
		c-1.227,0.757-2.587,1.118-3.93,1.118c-2.514,0-4.97-1.264-6.388-3.56l-12.768,7.874
		C205.105,153.543,204.009,158.162,200.485,160.337z"/>
	<polygon style="fill:#FECC33;" points="200.968,189.412 184.705,170.071 154.277,188.841 172.496,206.976 	"/>
	<path style="fill:#FF9926;" d="M222.043,392.146c-33.503,0-61.199,25.339-64.931,57.858h129.862
		C283.242,417.485,255.546,392.146,222.043,392.146z"/>
	<path style="fill:#FF9926;" d="M291.763,233.834c-0.01,0.011-0.021,0.021-0.031,0.033c-0.336,0.381-0.656,0.78-0.956,1.199
		c-2.322,3.244-3.241,7.198-2.589,11.134c0.652,3.936,2.798,7.382,6.042,9.704c3.13,2.24,6.923,3.159,10.722,2.637l-4.254-19.096
		c-0.565,0.127-1.151,0.2-1.757,0.196C295.426,239.581,292.519,237.111,291.763,233.834z"/>
	<path d="M304.172,215.964c-0.007-0.006-0.012-0.012-0.019-0.018c-0.055-0.047-0.114-0.086-0.17-0.131
		c-0.139-0.113-0.278-0.225-0.425-0.328c-0.089-0.062-0.181-0.117-0.272-0.175c-0.128-0.082-0.257-0.163-0.39-0.237
		c-0.095-0.053-0.192-0.101-0.289-0.15c-0.138-0.069-0.278-0.135-0.42-0.196c-0.093-0.04-0.187-0.077-0.282-0.113
		c-0.154-0.059-0.311-0.111-0.47-0.16c-0.087-0.027-0.174-0.053-0.263-0.077c-0.172-0.046-0.347-0.083-0.523-0.117
		c-0.079-0.015-0.158-0.032-0.238-0.045c-0.188-0.029-0.379-0.048-0.571-0.063c-0.072-0.006-0.143-0.015-0.215-0.019
		c-0.204-0.01-0.41-0.007-0.616,0c-0.061,0.002-0.122-0.001-0.183,0.002c-0.266,0.016-0.533,0.044-0.801,0.088
		c-7.889,1.307-14.796,5.608-19.45,12.11c-2.126,2.971-3.659,6.242-4.579,9.668c-1.094,4.072-1.32,8.365-0.61,12.648
		c1.307,7.889,5.608,14.796,12.11,19.45c5.138,3.677,11.164,5.6,17.358,5.6c1.645,0,3.303-0.136,4.958-0.41
		c4.086-0.677,6.85-4.539,6.173-8.625c-0.677-4.087-4.544-6.851-8.625-6.173c-0.137,0.023-0.275,0.029-0.412,0.048
		c-3.799,0.522-7.592-0.397-10.722-2.637c-3.244-2.322-5.39-5.768-6.042-9.704c-0.652-3.936,0.268-7.89,2.589-11.134
		c0.3-0.419,0.62-0.818,0.956-1.199c0.01-0.011,0.021-0.021,0.031-0.033c0.756,3.277,3.663,5.746,7.178,5.807
		c0.606,0.004,1.192-0.069,1.757-0.196c3.321-0.749,5.811-3.634,5.872-7.172l0.183-10.518c0.001-0.071-0.007-0.141-0.008-0.212
		c-0.002-0.169-0.006-0.337-0.019-0.508c-0.009-0.117-0.025-0.232-0.04-0.348c-0.012-0.096-0.017-0.192-0.033-0.289
		c-0.008-0.05-0.023-0.097-0.032-0.146c-0.022-0.119-0.049-0.236-0.077-0.353c-0.034-0.145-0.071-0.289-0.113-0.43
		c-0.032-0.105-0.066-0.209-0.102-0.313c-0.052-0.15-0.109-0.298-0.17-0.444c-0.039-0.093-0.079-0.184-0.122-0.275
		c-0.071-0.151-0.148-0.298-0.228-0.443c-0.046-0.083-0.091-0.166-0.14-0.247c-0.089-0.146-0.184-0.287-0.282-0.426
		c-0.053-0.075-0.103-0.152-0.159-0.226c-0.109-0.144-0.226-0.28-0.345-0.415c-0.039-0.044-0.077-0.089-0.115-0.134
		c-0.015-0.018-0.029-0.036-0.045-0.053C304.548,216.309,304.365,216.132,304.172,215.964z"/>
	<path d="M404.639,251.54l-33.848-74.948c-0.101-0.268-0.223-0.532-0.358-0.792L293.192,4.771c-1.15-2.547-3.621-4.243-6.411-4.401
		c-41.817-2.372-85.439,6.68-126.161,26.168c-40.722,19.489-75.135,47.788-99.519,81.837c-2.141,2.989-1.799,7.088,0.807,9.682
		L237.793,293.14l-33.571,86.023c-35.758,8.132-62.537,40.158-62.537,78.342c0,4.142,3.358,7.5,7.5,7.5h205.908
		c4.142,0,7.5-3.358,7.5-7.5c0-34.274-21.436-64.236-53.057-75.59l19.688-50.447l32.98,0.117c17.567,0,31.858-14.292,31.858-31.858
		v-6.067c3.534-0.606,6.227-3.677,6.227-7.384s-2.692-6.778-6.227-7.384v-17.771c2.019,1.162,4.544,1.376,6.829,0.344
		C404.665,259.758,406.344,255.315,404.639,251.54z M379.061,278.774h-5.541c-4.142,0-7.5,3.358-7.5,7.5s3.358,7.5,7.5,7.5h5.541
		v5.951c0,9.296-7.563,16.858-16.832,16.858l-38.097-0.135c-0.009,0-0.018,0-0.026,0c-3.089,0-5.863,1.895-6.987,4.773
		l-27.292,69.931c-1.506,3.858,0.401,8.208,4.26,9.713c0.896,0.35,1.818,0.515,2.725,0.515c3,0,5.833-1.813,6.989-4.775l0.28-0.717
		c23.573,8.307,40.263,29.304,43.087,54.115h-45.113c-3.794-40.807-38.23-72.858-80.011-72.858c-0.316,0-0.627,0.02-0.942,0.024
		l32.452-83.153c1.084-2.779,0.419-5.937-1.696-8.042l-16.648-16.572l19.054-12.049c3.5-2.213,4.544-6.844,2.332-10.345
		c0-0.001-0.001-0.001-0.001-0.002c-2.213-3.5-6.846-4.544-10.347-2.331l-21.94,13.874l-40.88-40.693l148.242-91.445l22.571,49.977
		l-32.543,20.578c-3.501,2.214-4.544,6.846-2.331,10.347c0.001,0.001,0.002,0.002,0.002,0.003c1.428,2.255,3.858,3.49,6.344,3.49
		c1.37,0,2.757-0.375,4.001-1.162l30.76-19.451l15.558,34.45h-25.548c-3.264,0-6.153,2.111-7.146,5.221
		c-0.992,3.11,0.142,6.504,2.803,8.394l9.195,6.529c1.318,0.936,2.834,1.385,4.336,1.385c2.347,0,4.659-1.099,6.122-3.158
		c0.735-1.036,1.17-2.194,1.323-3.372h11.944V278.774z M157.112,450.004c3.732-32.52,31.428-57.858,64.931-57.858
		c33.502,0,61.199,25.339,64.931,57.858H157.112z M281.414,15.138l27.428,60.732l-90.7,55.95c-3.525,2.175-4.621,6.795-2.446,10.321
		c0,0,0.001,0.001,0.001,0.001c0.001,0.001,0.001,0.002,0.002,0.003c1.418,2.296,3.874,3.56,6.388,3.56
		c1.343,0,2.703-0.361,3.93-1.118l2.195-1.354l14.301,20.552l-28.642,17.668l-16.263-19.341l2.876-1.774
		c3.525-2.174,4.62-6.794,2.447-10.319c0,0,0-0.001-0.001-0.001c0,0,0,0,0,0c-2.174-3.525-6.795-4.62-10.321-2.446l-49.264,30.389
		l-66.27-65.967c22.643-29.726,53.638-54.512,90.019-71.923C204.072,22.373,243.495,13.789,281.414,15.138z M271.667,116.427
		l12.339,21.762L255.3,155.897l-14.301-20.552L271.667,116.427z M296.781,130.308l-12.339-21.762l30.625-18.892l10.375,22.973
		L296.781,130.308z M184.705,170.071l16.263,19.341l-28.472,17.564l-18.218-18.135L184.705,170.071z"/>
</g>
</svg>