<?xml version="1.0" encoding="iso-8859-1"?>
<!-- Uploaded to: SVG Repo, www.svgrepo.com, Generator: SVG Repo Mixer Tools -->
<svg height="800px" width="800px" version="1.1" id="Capa_1" xmlns="http://www.w3.org/2000/svg" xmlns:xlink="http://www.w3.org/1999/xlink" 
	 viewBox="0 0 465 465" xml:space="preserve">
<g>
	<path style="fill:#0C80E4;" d="M335.416,302.741c9.892-4.286,18.877-10.267,26.587-17.582
		C354.293,292.474,345.308,298.455,335.416,302.741L335.416,302.741z"/>
	<path style="fill:#00E4C5;" d="M15.333,226.363c0.472,5.31,1.444,10.478,2.863,15.459H77.41c-1.294-5-2.172-10.166-2.602-15.459
		H15.333z"/>
	<path style="fill:#00E4C5;" d="M79.706,256.822H24.102c2.82,5.532,6.227,10.717,10.154,15.459H91.74
		c-3.595-4.981-6.704-10.336-9.25-16C81.629,256.627,80.69,256.822,79.706,256.822z"/>
	<path style="fill:#00E4C5;" d="M97.775,287.282H50.428c13.694,9.726,30.412,15.459,48.45,15.459h30.706
		c-9.892-4.286-18.877-10.267-26.587-17.582C101.646,286.471,99.807,287.282,97.775,287.282z"/>
	<path style="fill:#FECC33;" d="M77.41,241.822h2.295c4.142,0,7.5,3.358,7.5,7.5c0,3.157-1.953,5.854-4.715,6.96
		c2.546,5.664,5.654,11.019,9.25,16h6.035c4.142,0,7.5,3.358,7.5,7.5c0,2.111-0.875,4.015-2.278,5.377
		c7.71,7.315,16.695,13.296,26.587,17.582h28.596v-76.378H74.808C75.238,231.656,76.117,236.823,77.41,241.822z"/>
	<path style="fill:#FECC33;" d="M306.82,226.363v76.378h28.596c9.892-4.286,18.877-10.267,26.587-17.582
		c-1.403-1.363-2.278-3.267-2.278-5.377c0-4.142,3.358-7.5,7.5-7.5h6.035c3.595-4.981,6.704-10.336,9.25-16
		c-2.762-1.106-4.715-3.803-4.715-6.96c0-4.142,3.358-7.5,7.5-7.5h2.295c1.294-5,2.172-10.166,2.602-15.459H306.82z"/>
	<path style="fill:#00E4C5;" d="M366.122,302.741c18.038,0,34.756-5.734,48.45-15.459h-47.347c-2.031,0-3.871-0.811-5.222-2.123
		c-7.71,7.315-16.695,13.296-26.587,17.582H366.122z"/>
	<path style="fill:#00E4C5;" d="M390.192,226.363c-0.43,5.293-1.308,10.459-2.602,15.459h59.215
		c1.419-4.981,2.391-10.149,2.863-15.459H390.192z"/>
	<path style="fill:#00E4C5;" d="M430.744,272.282c3.927-4.742,7.334-9.927,10.154-15.459h-55.603c-0.985,0-1.923-0.195-2.785-0.54
		c-2.546,5.664-5.654,11.019-9.25,16H430.744z"/>
	<path style="fill:#0C80E4;" d="M270.193,197.236h-6.556c-4.142,0-7.5-3.358-7.5-7.5c0-13.034-10.604-23.638-23.637-23.638
		c-10.412,0-19.267,6.77-22.411,16.138h23.548c4.142,0,7.5,3.358,7.5,7.5s-3.358,7.5-7.5,7.5h-32.275h-6.556
		c-11.925,0-21.627,9.702-21.627,21.627c0,11.925,9.702,21.626,21.627,21.626h17.704c7.642,0,14.758,3.034,19.989,8.133
		c5.231-5.099,12.347-8.133,19.989-8.133h17.705c11.925,0,21.627-9.702,21.627-21.626
		C291.82,206.938,282.119,197.236,270.193,197.236z"/>
	<path style="fill:#0C80E4;" d="M252.489,255.49c-5.45,0-10.336,3.242-12.489,8.172v105.409c29.179-3.7,51.82-28.662,51.82-58.83
		v-61.843c-6.065,4.453-13.542,7.091-21.627,7.091H252.489z"/>
	<path style="fill:#00E4C5;" d="M212.511,255.49h-17.704c-8.084,0-15.562-2.638-21.627-7.091v61.843
		c0,30.167,22.641,55.129,51.82,58.83V263.662C222.847,258.731,217.961,255.49,212.511,255.49z"/>
	<path d="M457.5,211.363H336.82v-18.897c0-32.293-14.645-62.262-40.18-82.223c-3.265-2.552-7.977-1.974-10.528,1.29
		c-2.551,3.264-1.974,7.977,1.29,10.528c21.874,17.098,34.418,42.76,34.418,70.405v18.897h-15.776
		c-3.457-16.543-18.107-29.026-35.638-29.126c-3.501-17.728-19.167-31.138-37.907-31.138s-34.406,13.411-37.907,31.138
		c-17.531,0.101-32.181,12.583-35.638,29.126H143.18v-18.897c0-27.646,12.544-53.308,34.417-70.405
		c3.263-2.551,3.841-7.264,1.29-10.528c-2.55-3.263-7.262-3.841-10.528-1.29c-25.534,19.96-40.179,49.929-40.179,82.223v18.897H7.5
		c-4.142,0-7.5,3.358-7.5,7.5c0,54.521,44.356,98.878,98.878,98.878h29.582c2.997,42.117,31.046,78.409,71.708,91.693
		c0.774,0.252,1.559,0.373,2.331,0.373c3.157,0,6.094-2.009,7.128-5.173c1.286-3.938-0.863-8.172-4.8-9.458
		c-34.474-11.262-58.367-41.831-61.331-77.434h15.061c3.772,37.471,35.494,66.82,73.943,66.82s70.17-29.349,73.943-66.82h15.061
		c-2.964,35.603-26.857,66.172-61.331,77.434c-3.937,1.287-6.086,5.521-4.8,9.458c1.034,3.164,3.971,5.173,7.128,5.173
		c0.771,0,1.557-0.12,2.331-0.373c40.663-13.284,68.711-49.576,71.709-91.693h29.582c54.521,0,98.878-44.356,98.878-98.878
		C465,214.721,461.642,211.363,457.5,211.363z M158.18,302.741h-28.596h0H98.878c-18.038,0-34.756-5.734-48.45-15.459h47.347
		c2.031,0,3.871-0.811,5.222-2.123c1.403-1.363,2.278-3.267,2.278-5.377c0-4.142-3.358-7.5-7.5-7.5H91.74H34.256
		c-3.927-4.742-7.334-9.927-10.154-15.459h55.603c0.985,0,1.923-0.195,2.785-0.54c2.762-1.106,4.715-3.803,4.715-6.96
		c0-4.142-3.358-7.5-7.5-7.5H77.41H18.196c-1.419-4.981-2.391-10.149-2.863-15.459h59.476h83.371V302.741z M225,369.071
		c-29.179-3.7-51.82-28.662-51.82-58.83v-61.843c6.065,4.453,13.542,7.091,21.627,7.091h17.704c5.45,0,10.336,3.242,12.489,8.172
		V369.071z M291.82,310.241c0,30.167-22.641,55.129-51.82,58.83V263.662c2.153-4.93,7.039-8.172,12.489-8.172h17.705
		c8.084,0,15.562-2.638,21.627-7.091V310.241z M270.193,240.49h-17.705c-7.642,0-14.757,3.034-19.989,8.133
		c-5.231-5.099-12.347-8.133-19.989-8.133h-17.704c-11.925,0-21.627-9.702-21.627-21.626c0-11.925,9.702-21.627,21.627-21.627h6.556
		h32.275c4.142,0,7.5-3.358,7.5-7.5s-3.358-7.5-7.5-7.5h-23.548c3.143-9.367,11.999-16.138,22.411-16.138
		c13.034,0,23.637,10.604,23.637,23.638c0,4.142,3.358,7.5,7.5,7.5h6.556c11.925,0,21.627,9.702,21.627,21.627
		C291.82,230.788,282.119,240.49,270.193,240.49z M446.804,241.822H387.59h-2.295c-4.142,0-7.5,3.358-7.5,7.5
		c0,3.157,1.953,5.854,4.715,6.96c0.862,0.345,1.8,0.54,2.785,0.54h55.603c-2.82,5.532-6.227,10.717-10.154,15.459H373.26h-6.035
		c-4.142,0-7.5,3.358-7.5,7.5c0,2.111,0.875,4.015,2.278,5.377c1.351,1.312,3.19,2.123,5.222,2.123h47.347
		c-13.694,9.726-30.412,15.459-48.45,15.459h-30.706h0H306.82v-76.378h83.371h59.476
		C449.195,231.673,448.224,236.841,446.804,241.822z"/>
	<path style="fill:#E43017;" d="M232.5,121.099c14.034,0,25.452-11.418,25.452-25.453S246.534,70.193,232.5,70.193
		c-14.035,0-25.453,11.418-25.453,25.453S218.465,121.099,232.5,121.099z"/>
	<path d="M232.5,136.099c22.305,0,40.452-18.147,40.452-40.453S254.805,55.193,232.5,55.193c-22.306,0-40.453,18.147-40.453,40.453
		S210.194,136.099,232.5,136.099z M232.5,70.193c14.034,0,25.452,11.418,25.452,25.453s-11.418,25.453-25.452,25.453
		c-14.035,0-25.453-11.418-25.453-25.453S218.465,70.193,232.5,70.193z"/>
</g>
</svg>